<mxfile host="app.diagrams.net" agent="Mozilla/5.0 (Windows NT 10.0; rv:133.0) Gecko/20100101 Firefox/133.0" version="25.0.3">
  <diagram name="Página-1" id="pNauOIaTNGRux9Pw0jf6">
    <mxGraphModel dx="880" dy="1591" grid="1" gridSize="10" guides="1" tooltips="1" connect="1" arrows="1" fold="1" page="1" pageScale="1" pageWidth="827" pageHeight="1169" math="0" shadow="0">
      <root>
        <mxCell id="0" />
        <mxCell id="1" parent="0" />
        <mxCell id="O4y-3kp40cqBCzOCix7Y-1" value="Cliente" style="shape=table;startSize=30;container=1;collapsible=1;childLayout=tableLayout;fixedRows=1;rowLines=0;fontStyle=1;align=center;resizeLast=1;html=1;fillColor=#dae8fc;strokeColor=#6c8ebf;" parent="1" vertex="1">
          <mxGeometry x="10" y="-520" width="220" height="150" as="geometry">
            <mxRectangle x="60" y="-720" width="80" height="30" as="alternateBounds" />
          </mxGeometry>
        </mxCell>
        <mxCell id="O4y-3kp40cqBCzOCix7Y-2" value="" style="shape=tableRow;horizontal=0;startSize=0;swimlaneHead=0;swimlaneBody=0;fillColor=none;collapsible=0;dropTarget=0;points=[[0,0.5],[1,0.5]];portConstraint=eastwest;top=0;left=0;right=0;bottom=1;" parent="O4y-3kp40cqBCzOCix7Y-1" vertex="1">
          <mxGeometry y="30" width="220" height="30" as="geometry" />
        </mxCell>
        <mxCell id="O4y-3kp40cqBCzOCix7Y-3" value="PK" style="shape=partialRectangle;connectable=0;fillColor=none;top=0;left=0;bottom=0;right=0;fontStyle=1;overflow=hidden;whiteSpace=wrap;html=1;" parent="O4y-3kp40cqBCzOCix7Y-2" vertex="1">
          <mxGeometry width="30" height="30" as="geometry">
            <mxRectangle width="30" height="30" as="alternateBounds" />
          </mxGeometry>
        </mxCell>
        <mxCell id="O4y-3kp40cqBCzOCix7Y-4" value="IdCliente INT" style="shape=partialRectangle;connectable=0;fillColor=none;top=0;left=0;bottom=0;right=0;align=left;spacingLeft=6;fontStyle=5;overflow=hidden;whiteSpace=wrap;html=1;" parent="O4y-3kp40cqBCzOCix7Y-2" vertex="1">
          <mxGeometry x="30" width="190" height="30" as="geometry">
            <mxRectangle width="190" height="30" as="alternateBounds" />
          </mxGeometry>
        </mxCell>
        <mxCell id="O4y-3kp40cqBCzOCix7Y-5" value="" style="shape=tableRow;horizontal=0;startSize=0;swimlaneHead=0;swimlaneBody=0;fillColor=none;collapsible=0;dropTarget=0;points=[[0,0.5],[1,0.5]];portConstraint=eastwest;top=0;left=0;right=0;bottom=0;" parent="O4y-3kp40cqBCzOCix7Y-1" vertex="1">
          <mxGeometry y="60" width="220" height="30" as="geometry" />
        </mxCell>
        <mxCell id="O4y-3kp40cqBCzOCix7Y-6" value="" style="shape=partialRectangle;connectable=0;fillColor=none;top=0;left=0;bottom=0;right=0;editable=1;overflow=hidden;whiteSpace=wrap;html=1;" parent="O4y-3kp40cqBCzOCix7Y-5" vertex="1">
          <mxGeometry width="30" height="30" as="geometry">
            <mxRectangle width="30" height="30" as="alternateBounds" />
          </mxGeometry>
        </mxCell>
        <mxCell id="O4y-3kp40cqBCzOCix7Y-7" value="Nome VARCHAR(45)" style="shape=partialRectangle;connectable=0;fillColor=none;top=0;left=0;bottom=0;right=0;align=left;spacingLeft=6;overflow=hidden;whiteSpace=wrap;html=1;" parent="O4y-3kp40cqBCzOCix7Y-5" vertex="1">
          <mxGeometry x="30" width="190" height="30" as="geometry">
            <mxRectangle width="190" height="30" as="alternateBounds" />
          </mxGeometry>
        </mxCell>
        <mxCell id="O4y-3kp40cqBCzOCix7Y-8" value="" style="shape=tableRow;horizontal=0;startSize=0;swimlaneHead=0;swimlaneBody=0;fillColor=none;collapsible=0;dropTarget=0;points=[[0,0.5],[1,0.5]];portConstraint=eastwest;top=0;left=0;right=0;bottom=0;" parent="O4y-3kp40cqBCzOCix7Y-1" vertex="1">
          <mxGeometry y="90" width="220" height="30" as="geometry" />
        </mxCell>
        <mxCell id="O4y-3kp40cqBCzOCix7Y-9" value="" style="shape=partialRectangle;connectable=0;fillColor=none;top=0;left=0;bottom=0;right=0;editable=1;overflow=hidden;whiteSpace=wrap;html=1;" parent="O4y-3kp40cqBCzOCix7Y-8" vertex="1">
          <mxGeometry width="30" height="30" as="geometry">
            <mxRectangle width="30" height="30" as="alternateBounds" />
          </mxGeometry>
        </mxCell>
        <mxCell id="O4y-3kp40cqBCzOCix7Y-10" value="Identificação VARCHAR (45)" style="shape=partialRectangle;connectable=0;fillColor=none;top=0;left=0;bottom=0;right=0;align=left;spacingLeft=6;overflow=hidden;whiteSpace=wrap;html=1;" parent="O4y-3kp40cqBCzOCix7Y-8" vertex="1">
          <mxGeometry x="30" width="190" height="30" as="geometry">
            <mxRectangle width="190" height="30" as="alternateBounds" />
          </mxGeometry>
        </mxCell>
        <mxCell id="O4y-3kp40cqBCzOCix7Y-11" value="" style="shape=tableRow;horizontal=0;startSize=0;swimlaneHead=0;swimlaneBody=0;fillColor=none;collapsible=0;dropTarget=0;points=[[0,0.5],[1,0.5]];portConstraint=eastwest;top=0;left=0;right=0;bottom=0;" parent="O4y-3kp40cqBCzOCix7Y-1" vertex="1">
          <mxGeometry y="120" width="220" height="30" as="geometry" />
        </mxCell>
        <mxCell id="O4y-3kp40cqBCzOCix7Y-12" value="" style="shape=partialRectangle;connectable=0;fillColor=none;top=0;left=0;bottom=0;right=0;editable=1;overflow=hidden;whiteSpace=wrap;html=1;" parent="O4y-3kp40cqBCzOCix7Y-11" vertex="1">
          <mxGeometry width="30" height="30" as="geometry">
            <mxRectangle width="30" height="30" as="alternateBounds" />
          </mxGeometry>
        </mxCell>
        <mxCell id="O4y-3kp40cqBCzOCix7Y-13" value="Endereço VARCHAR(45)" style="shape=partialRectangle;connectable=0;fillColor=none;top=0;left=0;bottom=0;right=0;align=left;spacingLeft=6;overflow=hidden;whiteSpace=wrap;html=1;" parent="O4y-3kp40cqBCzOCix7Y-11" vertex="1">
          <mxGeometry x="30" width="190" height="30" as="geometry">
            <mxRectangle width="190" height="30" as="alternateBounds" />
          </mxGeometry>
        </mxCell>
        <mxCell id="O4y-3kp40cqBCzOCix7Y-19" value="Pedido" style="shape=table;startSize=30;container=1;collapsible=1;childLayout=tableLayout;fixedRows=1;rowLines=0;fontStyle=1;align=center;resizeLast=1;html=1;fillColor=#dae8fc;strokeColor=#6c8ebf;" parent="1" vertex="1">
          <mxGeometry x="580" y="-520" width="220" height="230" as="geometry" />
        </mxCell>
        <mxCell id="O4y-3kp40cqBCzOCix7Y-20" value="" style="shape=tableRow;horizontal=0;startSize=0;swimlaneHead=0;swimlaneBody=0;fillColor=none;collapsible=0;dropTarget=0;points=[[0,0.5],[1,0.5]];portConstraint=eastwest;top=0;left=0;right=0;bottom=1;" parent="O4y-3kp40cqBCzOCix7Y-19" vertex="1">
          <mxGeometry y="30" width="220" height="30" as="geometry" />
        </mxCell>
        <mxCell id="O4y-3kp40cqBCzOCix7Y-21" value="PK" style="shape=partialRectangle;connectable=0;fillColor=none;top=0;left=0;bottom=0;right=0;fontStyle=1;overflow=hidden;whiteSpace=wrap;html=1;" parent="O4y-3kp40cqBCzOCix7Y-20" vertex="1">
          <mxGeometry width="30" height="30" as="geometry">
            <mxRectangle width="30" height="30" as="alternateBounds" />
          </mxGeometry>
        </mxCell>
        <mxCell id="O4y-3kp40cqBCzOCix7Y-22" value="IdPedido INT" style="shape=partialRectangle;connectable=0;fillColor=none;top=0;left=0;bottom=0;right=0;align=left;spacingLeft=6;fontStyle=5;overflow=hidden;whiteSpace=wrap;html=1;" parent="O4y-3kp40cqBCzOCix7Y-20" vertex="1">
          <mxGeometry x="30" width="190" height="30" as="geometry">
            <mxRectangle width="190" height="30" as="alternateBounds" />
          </mxGeometry>
        </mxCell>
        <mxCell id="O4y-3kp40cqBCzOCix7Y-23" value="" style="shape=tableRow;horizontal=0;startSize=0;swimlaneHead=0;swimlaneBody=0;fillColor=none;collapsible=0;dropTarget=0;points=[[0,0.5],[1,0.5]];portConstraint=eastwest;top=0;left=0;right=0;bottom=0;" parent="O4y-3kp40cqBCzOCix7Y-19" vertex="1">
          <mxGeometry y="60" width="220" height="30" as="geometry" />
        </mxCell>
        <mxCell id="O4y-3kp40cqBCzOCix7Y-24" value="" style="shape=partialRectangle;connectable=0;fillColor=none;top=0;left=0;bottom=0;right=0;editable=1;overflow=hidden;whiteSpace=wrap;html=1;" parent="O4y-3kp40cqBCzOCix7Y-23" vertex="1">
          <mxGeometry width="30" height="30" as="geometry">
            <mxRectangle width="30" height="30" as="alternateBounds" />
          </mxGeometry>
        </mxCell>
        <mxCell id="O4y-3kp40cqBCzOCix7Y-25" value="Status do pedido VARCHAR (45)" style="shape=partialRectangle;connectable=0;fillColor=none;top=0;left=0;bottom=0;right=0;align=left;spacingLeft=6;overflow=hidden;whiteSpace=wrap;html=1;" parent="O4y-3kp40cqBCzOCix7Y-23" vertex="1">
          <mxGeometry x="30" width="190" height="30" as="geometry">
            <mxRectangle width="190" height="30" as="alternateBounds" />
          </mxGeometry>
        </mxCell>
        <mxCell id="O4y-3kp40cqBCzOCix7Y-26" value="" style="shape=tableRow;horizontal=0;startSize=0;swimlaneHead=0;swimlaneBody=0;fillColor=none;collapsible=0;dropTarget=0;points=[[0,0.5],[1,0.5]];portConstraint=eastwest;top=0;left=0;right=0;bottom=0;" parent="O4y-3kp40cqBCzOCix7Y-19" vertex="1">
          <mxGeometry y="90" width="220" height="20" as="geometry" />
        </mxCell>
        <mxCell id="O4y-3kp40cqBCzOCix7Y-27" value="" style="shape=partialRectangle;connectable=0;fillColor=none;top=0;left=0;bottom=0;right=0;editable=1;overflow=hidden;whiteSpace=wrap;html=1;" parent="O4y-3kp40cqBCzOCix7Y-26" vertex="1">
          <mxGeometry width="30" height="20" as="geometry">
            <mxRectangle width="30" height="20" as="alternateBounds" />
          </mxGeometry>
        </mxCell>
        <mxCell id="O4y-3kp40cqBCzOCix7Y-28" value="Descrição VARCHAR (45)" style="shape=partialRectangle;connectable=0;fillColor=none;top=0;left=0;bottom=0;right=0;align=left;spacingLeft=6;overflow=hidden;whiteSpace=wrap;html=1;" parent="O4y-3kp40cqBCzOCix7Y-26" vertex="1">
          <mxGeometry x="30" width="190" height="20" as="geometry">
            <mxRectangle width="190" height="20" as="alternateBounds" />
          </mxGeometry>
        </mxCell>
        <mxCell id="O4y-3kp40cqBCzOCix7Y-29" value="" style="shape=tableRow;horizontal=0;startSize=0;swimlaneHead=0;swimlaneBody=0;fillColor=none;collapsible=0;dropTarget=0;points=[[0,0.5],[1,0.5]];portConstraint=eastwest;top=0;left=0;right=0;bottom=0;" parent="O4y-3kp40cqBCzOCix7Y-19" vertex="1">
          <mxGeometry y="110" width="220" height="30" as="geometry" />
        </mxCell>
        <mxCell id="O4y-3kp40cqBCzOCix7Y-30" value="" style="shape=partialRectangle;connectable=0;fillColor=none;top=0;left=0;bottom=0;right=0;editable=1;overflow=hidden;whiteSpace=wrap;html=1;" parent="O4y-3kp40cqBCzOCix7Y-29" vertex="1">
          <mxGeometry width="30" height="30" as="geometry">
            <mxRectangle width="30" height="30" as="alternateBounds" />
          </mxGeometry>
        </mxCell>
        <mxCell id="O4y-3kp40cqBCzOCix7Y-31" value="Cliente_idCliente INT" style="shape=partialRectangle;connectable=0;fillColor=none;top=0;left=0;bottom=0;right=0;align=left;spacingLeft=6;overflow=hidden;whiteSpace=wrap;html=1;" parent="O4y-3kp40cqBCzOCix7Y-29" vertex="1">
          <mxGeometry x="30" width="190" height="30" as="geometry">
            <mxRectangle width="190" height="30" as="alternateBounds" />
          </mxGeometry>
        </mxCell>
        <mxCell id="mLtBZl6AU_xnji8sPROv-2" value="" style="shape=tableRow;horizontal=0;startSize=0;swimlaneHead=0;swimlaneBody=0;fillColor=none;collapsible=0;dropTarget=0;points=[[0,0.5],[1,0.5]];portConstraint=eastwest;top=0;left=0;right=0;bottom=0;" vertex="1" parent="O4y-3kp40cqBCzOCix7Y-19">
          <mxGeometry y="140" width="220" height="30" as="geometry" />
        </mxCell>
        <mxCell id="mLtBZl6AU_xnji8sPROv-3" value="" style="shape=partialRectangle;connectable=0;fillColor=none;top=0;left=0;bottom=0;right=0;editable=1;overflow=hidden;whiteSpace=wrap;html=1;" vertex="1" parent="mLtBZl6AU_xnji8sPROv-2">
          <mxGeometry width="30" height="30" as="geometry">
            <mxRectangle width="30" height="30" as="alternateBounds" />
          </mxGeometry>
        </mxCell>
        <mxCell id="mLtBZl6AU_xnji8sPROv-4" value="Frete FLOAT" style="shape=partialRectangle;connectable=0;fillColor=none;top=0;left=0;bottom=0;right=0;align=left;spacingLeft=6;overflow=hidden;whiteSpace=wrap;html=1;" vertex="1" parent="mLtBZl6AU_xnji8sPROv-2">
          <mxGeometry x="30" width="190" height="30" as="geometry">
            <mxRectangle width="190" height="30" as="alternateBounds" />
          </mxGeometry>
        </mxCell>
        <mxCell id="mLtBZl6AU_xnji8sPROv-6" value="" style="shape=tableRow;horizontal=0;startSize=0;swimlaneHead=0;swimlaneBody=0;fillColor=none;collapsible=0;dropTarget=0;points=[[0,0.5],[1,0.5]];portConstraint=eastwest;top=0;left=0;right=0;bottom=0;" vertex="1" parent="O4y-3kp40cqBCzOCix7Y-19">
          <mxGeometry y="170" width="220" height="30" as="geometry" />
        </mxCell>
        <mxCell id="mLtBZl6AU_xnji8sPROv-7" value="" style="shape=partialRectangle;connectable=0;fillColor=none;top=0;left=0;bottom=0;right=0;editable=1;overflow=hidden;whiteSpace=wrap;html=1;" vertex="1" parent="mLtBZl6AU_xnji8sPROv-6">
          <mxGeometry width="30" height="30" as="geometry">
            <mxRectangle width="30" height="30" as="alternateBounds" />
          </mxGeometry>
        </mxCell>
        <mxCell id="mLtBZl6AU_xnji8sPROv-8" value="Código Rastreio INT" style="shape=partialRectangle;connectable=0;fillColor=none;top=0;left=0;bottom=0;right=0;align=left;spacingLeft=6;overflow=hidden;whiteSpace=wrap;html=1;" vertex="1" parent="mLtBZl6AU_xnji8sPROv-6">
          <mxGeometry x="30" width="190" height="30" as="geometry">
            <mxRectangle width="190" height="30" as="alternateBounds" />
          </mxGeometry>
        </mxCell>
        <mxCell id="mLtBZl6AU_xnji8sPROv-9" value="" style="shape=tableRow;horizontal=0;startSize=0;swimlaneHead=0;swimlaneBody=0;fillColor=none;collapsible=0;dropTarget=0;points=[[0,0.5],[1,0.5]];portConstraint=eastwest;top=0;left=0;right=0;bottom=0;" vertex="1" parent="O4y-3kp40cqBCzOCix7Y-19">
          <mxGeometry y="200" width="220" height="30" as="geometry" />
        </mxCell>
        <mxCell id="mLtBZl6AU_xnji8sPROv-10" value="" style="shape=partialRectangle;connectable=0;fillColor=none;top=0;left=0;bottom=0;right=0;editable=1;overflow=hidden;whiteSpace=wrap;html=1;" vertex="1" parent="mLtBZl6AU_xnji8sPROv-9">
          <mxGeometry width="30" height="30" as="geometry">
            <mxRectangle width="30" height="30" as="alternateBounds" />
          </mxGeometry>
        </mxCell>
        <mxCell id="mLtBZl6AU_xnji8sPROv-11" value="&lt;div align=&quot;left&quot;&gt;Status entrega VARCHAR (45)&lt;/div&gt;&lt;div align=&quot;left&quot;&gt;&lt;br&gt;&lt;/div&gt;" style="shape=partialRectangle;connectable=0;fillColor=none;top=0;left=0;bottom=0;right=0;align=left;spacingLeft=6;overflow=hidden;whiteSpace=wrap;html=1;" vertex="1" parent="mLtBZl6AU_xnji8sPROv-9">
          <mxGeometry x="30" width="190" height="30" as="geometry">
            <mxRectangle width="190" height="30" as="alternateBounds" />
          </mxGeometry>
        </mxCell>
        <mxCell id="O4y-3kp40cqBCzOCix7Y-32" value="Produto" style="shape=table;startSize=20;container=1;collapsible=1;childLayout=tableLayout;fixedRows=1;rowLines=0;fontStyle=1;align=center;resizeLast=1;html=1;fillColor=#dae8fc;strokeColor=#6c8ebf;" parent="1" vertex="1">
          <mxGeometry x="480" y="-930" width="190" height="140" as="geometry" />
        </mxCell>
        <mxCell id="O4y-3kp40cqBCzOCix7Y-33" value="" style="shape=tableRow;horizontal=0;startSize=0;swimlaneHead=0;swimlaneBody=0;fillColor=none;collapsible=0;dropTarget=0;points=[[0,0.5],[1,0.5]];portConstraint=eastwest;top=0;left=0;right=0;bottom=1;" parent="O4y-3kp40cqBCzOCix7Y-32" vertex="1">
          <mxGeometry y="20" width="190" height="30" as="geometry" />
        </mxCell>
        <mxCell id="O4y-3kp40cqBCzOCix7Y-34" value="PK" style="shape=partialRectangle;connectable=0;fillColor=none;top=0;left=0;bottom=0;right=0;fontStyle=1;overflow=hidden;whiteSpace=wrap;html=1;" parent="O4y-3kp40cqBCzOCix7Y-33" vertex="1">
          <mxGeometry width="30" height="30" as="geometry">
            <mxRectangle width="30" height="30" as="alternateBounds" />
          </mxGeometry>
        </mxCell>
        <mxCell id="O4y-3kp40cqBCzOCix7Y-35" value="IdProduto INT" style="shape=partialRectangle;connectable=0;fillColor=none;top=0;left=0;bottom=0;right=0;align=left;spacingLeft=6;fontStyle=5;overflow=hidden;whiteSpace=wrap;html=1;" parent="O4y-3kp40cqBCzOCix7Y-33" vertex="1">
          <mxGeometry x="30" width="160" height="30" as="geometry">
            <mxRectangle width="160" height="30" as="alternateBounds" />
          </mxGeometry>
        </mxCell>
        <mxCell id="O4y-3kp40cqBCzOCix7Y-36" value="" style="shape=tableRow;horizontal=0;startSize=0;swimlaneHead=0;swimlaneBody=0;fillColor=none;collapsible=0;dropTarget=0;points=[[0,0.5],[1,0.5]];portConstraint=eastwest;top=0;left=0;right=0;bottom=0;" parent="O4y-3kp40cqBCzOCix7Y-32" vertex="1">
          <mxGeometry y="50" width="190" height="30" as="geometry" />
        </mxCell>
        <mxCell id="O4y-3kp40cqBCzOCix7Y-37" value="" style="shape=partialRectangle;connectable=0;fillColor=none;top=0;left=0;bottom=0;right=0;editable=1;overflow=hidden;whiteSpace=wrap;html=1;" parent="O4y-3kp40cqBCzOCix7Y-36" vertex="1">
          <mxGeometry width="30" height="30" as="geometry">
            <mxRectangle width="30" height="30" as="alternateBounds" />
          </mxGeometry>
        </mxCell>
        <mxCell id="O4y-3kp40cqBCzOCix7Y-38" value="Categoria VARCHAR (45)" style="shape=partialRectangle;connectable=0;fillColor=none;top=0;left=0;bottom=0;right=0;align=left;spacingLeft=6;overflow=hidden;whiteSpace=wrap;html=1;" parent="O4y-3kp40cqBCzOCix7Y-36" vertex="1">
          <mxGeometry x="30" width="160" height="30" as="geometry">
            <mxRectangle width="160" height="30" as="alternateBounds" />
          </mxGeometry>
        </mxCell>
        <mxCell id="O4y-3kp40cqBCzOCix7Y-39" value="" style="shape=tableRow;horizontal=0;startSize=0;swimlaneHead=0;swimlaneBody=0;fillColor=none;collapsible=0;dropTarget=0;points=[[0,0.5],[1,0.5]];portConstraint=eastwest;top=0;left=0;right=0;bottom=0;" parent="O4y-3kp40cqBCzOCix7Y-32" vertex="1">
          <mxGeometry y="80" width="190" height="30" as="geometry" />
        </mxCell>
        <mxCell id="O4y-3kp40cqBCzOCix7Y-40" value="" style="shape=partialRectangle;connectable=0;fillColor=none;top=0;left=0;bottom=0;right=0;editable=1;overflow=hidden;whiteSpace=wrap;html=1;" parent="O4y-3kp40cqBCzOCix7Y-39" vertex="1">
          <mxGeometry width="30" height="30" as="geometry">
            <mxRectangle width="30" height="30" as="alternateBounds" />
          </mxGeometry>
        </mxCell>
        <mxCell id="O4y-3kp40cqBCzOCix7Y-41" value="Descrição VARCHAR (45)" style="shape=partialRectangle;connectable=0;fillColor=none;top=0;left=0;bottom=0;right=0;align=left;spacingLeft=6;overflow=hidden;whiteSpace=wrap;html=1;" parent="O4y-3kp40cqBCzOCix7Y-39" vertex="1">
          <mxGeometry x="30" width="160" height="30" as="geometry">
            <mxRectangle width="160" height="30" as="alternateBounds" />
          </mxGeometry>
        </mxCell>
        <mxCell id="O4y-3kp40cqBCzOCix7Y-42" value="" style="shape=tableRow;horizontal=0;startSize=0;swimlaneHead=0;swimlaneBody=0;fillColor=none;collapsible=0;dropTarget=0;points=[[0,0.5],[1,0.5]];portConstraint=eastwest;top=0;left=0;right=0;bottom=0;" parent="O4y-3kp40cqBCzOCix7Y-32" vertex="1">
          <mxGeometry y="110" width="190" height="30" as="geometry" />
        </mxCell>
        <mxCell id="O4y-3kp40cqBCzOCix7Y-43" value="" style="shape=partialRectangle;connectable=0;fillColor=none;top=0;left=0;bottom=0;right=0;editable=1;overflow=hidden;whiteSpace=wrap;html=1;" parent="O4y-3kp40cqBCzOCix7Y-42" vertex="1">
          <mxGeometry width="30" height="30" as="geometry">
            <mxRectangle width="30" height="30" as="alternateBounds" />
          </mxGeometry>
        </mxCell>
        <mxCell id="O4y-3kp40cqBCzOCix7Y-44" value="Valor VARCHAR (45)" style="shape=partialRectangle;connectable=0;fillColor=none;top=0;left=0;bottom=0;right=0;align=left;spacingLeft=6;overflow=hidden;whiteSpace=wrap;html=1;" parent="O4y-3kp40cqBCzOCix7Y-42" vertex="1">
          <mxGeometry x="30" width="160" height="30" as="geometry">
            <mxRectangle width="160" height="30" as="alternateBounds" />
          </mxGeometry>
        </mxCell>
        <mxCell id="O4y-3kp40cqBCzOCix7Y-45" value="Fornecedor" style="shape=table;startSize=30;container=1;collapsible=1;childLayout=tableLayout;fixedRows=1;rowLines=0;fontStyle=1;align=center;resizeLast=1;html=1;fillColor=#dae8fc;strokeColor=#6c8ebf;" parent="1" vertex="1">
          <mxGeometry x="20" y="-1040" width="220" height="110" as="geometry" />
        </mxCell>
        <mxCell id="O4y-3kp40cqBCzOCix7Y-46" value="" style="shape=tableRow;horizontal=0;startSize=0;swimlaneHead=0;swimlaneBody=0;fillColor=none;collapsible=0;dropTarget=0;points=[[0,0.5],[1,0.5]];portConstraint=eastwest;top=0;left=0;right=0;bottom=1;" parent="O4y-3kp40cqBCzOCix7Y-45" vertex="1">
          <mxGeometry y="30" width="220" height="20" as="geometry" />
        </mxCell>
        <mxCell id="O4y-3kp40cqBCzOCix7Y-47" value="PK" style="shape=partialRectangle;connectable=0;fillColor=none;top=0;left=0;bottom=0;right=0;fontStyle=1;overflow=hidden;whiteSpace=wrap;html=1;" parent="O4y-3kp40cqBCzOCix7Y-46" vertex="1">
          <mxGeometry width="30" height="20" as="geometry">
            <mxRectangle width="30" height="20" as="alternateBounds" />
          </mxGeometry>
        </mxCell>
        <mxCell id="O4y-3kp40cqBCzOCix7Y-48" value="Idfornecedor INT" style="shape=partialRectangle;connectable=0;fillColor=none;top=0;left=0;bottom=0;right=0;align=left;spacingLeft=6;fontStyle=5;overflow=hidden;whiteSpace=wrap;html=1;" parent="O4y-3kp40cqBCzOCix7Y-46" vertex="1">
          <mxGeometry x="30" width="190" height="20" as="geometry">
            <mxRectangle width="190" height="20" as="alternateBounds" />
          </mxGeometry>
        </mxCell>
        <mxCell id="O4y-3kp40cqBCzOCix7Y-49" value="" style="shape=tableRow;horizontal=0;startSize=0;swimlaneHead=0;swimlaneBody=0;fillColor=none;collapsible=0;dropTarget=0;points=[[0,0.5],[1,0.5]];portConstraint=eastwest;top=0;left=0;right=0;bottom=0;" parent="O4y-3kp40cqBCzOCix7Y-45" vertex="1">
          <mxGeometry y="50" width="220" height="30" as="geometry" />
        </mxCell>
        <mxCell id="O4y-3kp40cqBCzOCix7Y-50" value="" style="shape=partialRectangle;connectable=0;fillColor=none;top=0;left=0;bottom=0;right=0;editable=1;overflow=hidden;whiteSpace=wrap;html=1;" parent="O4y-3kp40cqBCzOCix7Y-49" vertex="1">
          <mxGeometry width="30" height="30" as="geometry">
            <mxRectangle width="30" height="30" as="alternateBounds" />
          </mxGeometry>
        </mxCell>
        <mxCell id="O4y-3kp40cqBCzOCix7Y-51" value="Razão Social&amp;nbsp; VARCHAR (45)" style="shape=partialRectangle;connectable=0;fillColor=none;top=0;left=0;bottom=0;right=0;align=left;spacingLeft=6;overflow=hidden;whiteSpace=wrap;html=1;" parent="O4y-3kp40cqBCzOCix7Y-49" vertex="1">
          <mxGeometry x="30" width="190" height="30" as="geometry">
            <mxRectangle width="190" height="30" as="alternateBounds" />
          </mxGeometry>
        </mxCell>
        <mxCell id="O4y-3kp40cqBCzOCix7Y-52" value="" style="shape=tableRow;horizontal=0;startSize=0;swimlaneHead=0;swimlaneBody=0;fillColor=none;collapsible=0;dropTarget=0;points=[[0,0.5],[1,0.5]];portConstraint=eastwest;top=0;left=0;right=0;bottom=0;" parent="O4y-3kp40cqBCzOCix7Y-45" vertex="1">
          <mxGeometry y="80" width="220" height="30" as="geometry" />
        </mxCell>
        <mxCell id="O4y-3kp40cqBCzOCix7Y-53" value="" style="shape=partialRectangle;connectable=0;fillColor=none;top=0;left=0;bottom=0;right=0;editable=1;overflow=hidden;whiteSpace=wrap;html=1;" parent="O4y-3kp40cqBCzOCix7Y-52" vertex="1">
          <mxGeometry width="30" height="30" as="geometry">
            <mxRectangle width="30" height="30" as="alternateBounds" />
          </mxGeometry>
        </mxCell>
        <mxCell id="O4y-3kp40cqBCzOCix7Y-54" value="CNPJ VARCHAR(45) UniqueID" style="shape=partialRectangle;connectable=0;fillColor=none;top=0;left=0;bottom=0;right=0;align=left;spacingLeft=6;overflow=hidden;whiteSpace=wrap;html=1;" parent="O4y-3kp40cqBCzOCix7Y-52" vertex="1">
          <mxGeometry x="30" width="190" height="30" as="geometry">
            <mxRectangle width="190" height="30" as="alternateBounds" />
          </mxGeometry>
        </mxCell>
        <mxCell id="O4y-3kp40cqBCzOCix7Y-71" value="&lt;font style=&quot;font-size: 14px;&quot;&gt;E-Commerce&lt;/font&gt;" style="text;strokeColor=#d79b00;fillColor=#ffe6cc;spacingLeft=4;spacingRight=4;overflow=hidden;rotatable=0;points=[[0,0.5],[1,0.5]];portConstraint=eastwest;fontSize=12;whiteSpace=wrap;html=1;fontFamily=Helvetica;" parent="1" vertex="1">
          <mxGeometry y="-1160" width="200" height="40" as="geometry" />
        </mxCell>
        <mxCell id="O4y-3kp40cqBCzOCix7Y-83" value="Disponibilizando um produto" style="swimlane;childLayout=stackLayout;horizontal=1;startSize=50;horizontalStack=0;rounded=1;fontSize=14;fontStyle=0;strokeWidth=2;resizeParent=0;resizeLast=1;shadow=0;dashed=0;align=center;arcSize=4;whiteSpace=wrap;html=1;strokeColor=#6c8ebf;verticalAlign=middle;spacingLeft=6;fontFamily=Helvetica;fillColor=#dae8fc;" parent="1" vertex="1">
          <mxGeometry x="300" y="-1110" width="180" height="90" as="geometry" />
        </mxCell>
        <mxCell id="O4y-3kp40cqBCzOCix7Y-84" value="+Fornecedor_idFornecedor INT&lt;br&gt;+Produto_idProduto INT&lt;div&gt;&lt;br&gt;&lt;/div&gt;" style="align=left;strokeColor=none;fillColor=none;spacingLeft=4;fontSize=12;verticalAlign=top;resizable=0;rotatable=0;part=1;html=1;fontFamily=Helvetica;fontColor=default;" parent="O4y-3kp40cqBCzOCix7Y-83" vertex="1">
          <mxGeometry y="50" width="180" height="40" as="geometry" />
        </mxCell>
        <mxCell id="O4y-3kp40cqBCzOCix7Y-99" value="" style="endArrow=none;html=1;rounded=0;fontFamily=Helvetica;fontSize=12;fontColor=default;entryX=0.5;entryY=1;entryDx=0;entryDy=0;exitX=1;exitY=0.5;exitDx=0;exitDy=0;" parent="1" source="O4y-3kp40cqBCzOCix7Y-52" target="O4y-3kp40cqBCzOCix7Y-84" edge="1">
          <mxGeometry relative="1" as="geometry">
            <mxPoint x="240" y="-930" as="sourcePoint" />
            <mxPoint x="330" y="-940" as="targetPoint" />
          </mxGeometry>
        </mxCell>
        <mxCell id="O4y-3kp40cqBCzOCix7Y-100" value="M" style="resizable=0;html=1;whiteSpace=wrap;align=left;verticalAlign=bottom;strokeColor=default;spacingLeft=6;fontFamily=Helvetica;fontSize=12;fontColor=default;fillColor=none;" parent="O4y-3kp40cqBCzOCix7Y-99" connectable="0" vertex="1">
          <mxGeometry x="-1" relative="1" as="geometry">
            <mxPoint x="-5" y="13" as="offset" />
          </mxGeometry>
        </mxCell>
        <mxCell id="O4y-3kp40cqBCzOCix7Y-101" value="N" style="resizable=0;html=1;whiteSpace=wrap;align=right;verticalAlign=bottom;strokeColor=default;spacingLeft=6;fontFamily=Helvetica;fontSize=12;fontColor=default;fillColor=none;" parent="O4y-3kp40cqBCzOCix7Y-99" connectable="0" vertex="1">
          <mxGeometry x="1" relative="1" as="geometry">
            <mxPoint x="-23" y="17" as="offset" />
          </mxGeometry>
        </mxCell>
        <mxCell id="O4y-3kp40cqBCzOCix7Y-102" value="" style="endArrow=none;html=1;rounded=0;fontFamily=Helvetica;fontSize=12;fontColor=default;entryX=0.5;entryY=1;entryDx=0;entryDy=0;exitX=0.5;exitY=0;exitDx=0;exitDy=0;" parent="1" source="O4y-3kp40cqBCzOCix7Y-32" target="O4y-3kp40cqBCzOCix7Y-83" edge="1">
          <mxGeometry relative="1" as="geometry">
            <mxPoint x="575" y="-1040" as="sourcePoint" />
            <mxPoint x="490" y="-880" as="targetPoint" />
          </mxGeometry>
        </mxCell>
        <mxCell id="O4y-3kp40cqBCzOCix7Y-103" value="M" style="resizable=0;html=1;whiteSpace=wrap;align=left;verticalAlign=bottom;strokeColor=default;spacingLeft=6;fontFamily=Helvetica;fontSize=12;fontColor=default;fillColor=none;" parent="O4y-3kp40cqBCzOCix7Y-102" connectable="0" vertex="1">
          <mxGeometry x="-1" relative="1" as="geometry">
            <mxPoint x="-14" y="-2" as="offset" />
          </mxGeometry>
        </mxCell>
        <mxCell id="O4y-3kp40cqBCzOCix7Y-104" value="N" style="resizable=0;html=1;whiteSpace=wrap;align=right;verticalAlign=bottom;strokeColor=default;spacingLeft=6;fontFamily=Helvetica;fontSize=12;fontColor=default;fillColor=none;" parent="O4y-3kp40cqBCzOCix7Y-102" connectable="0" vertex="1">
          <mxGeometry x="1" relative="1" as="geometry">
            <mxPoint x="39" y="16" as="offset" />
          </mxGeometry>
        </mxCell>
        <mxCell id="O4y-3kp40cqBCzOCix7Y-105" value="Estoque" style="shape=table;startSize=30;container=1;collapsible=1;childLayout=tableLayout;fixedRows=1;rowLines=0;fontStyle=1;align=center;resizeLast=1;html=1;strokeColor=#6c8ebf;verticalAlign=middle;spacingLeft=6;fontFamily=Helvetica;fontSize=12;fillColor=#dae8fc;" parent="1" vertex="1">
          <mxGeometry x="590" y="-700" width="180" height="90" as="geometry" />
        </mxCell>
        <mxCell id="O4y-3kp40cqBCzOCix7Y-106" value="" style="shape=tableRow;horizontal=0;startSize=0;swimlaneHead=0;swimlaneBody=0;fillColor=none;collapsible=0;dropTarget=0;points=[[0,0.5],[1,0.5]];portConstraint=eastwest;top=0;left=0;right=0;bottom=1;strokeColor=default;align=left;verticalAlign=middle;spacingLeft=6;fontFamily=Helvetica;fontSize=12;fontColor=default;" parent="O4y-3kp40cqBCzOCix7Y-105" vertex="1">
          <mxGeometry y="30" width="180" height="30" as="geometry" />
        </mxCell>
        <mxCell id="O4y-3kp40cqBCzOCix7Y-107" value="PK" style="shape=partialRectangle;connectable=0;fillColor=none;top=0;left=0;bottom=0;right=0;fontStyle=1;overflow=hidden;whiteSpace=wrap;html=1;strokeColor=default;align=left;verticalAlign=middle;spacingLeft=6;fontFamily=Helvetica;fontSize=12;fontColor=default;" parent="O4y-3kp40cqBCzOCix7Y-106" vertex="1">
          <mxGeometry width="30" height="30" as="geometry">
            <mxRectangle width="30" height="30" as="alternateBounds" />
          </mxGeometry>
        </mxCell>
        <mxCell id="O4y-3kp40cqBCzOCix7Y-108" value="Idestoque INT" style="shape=partialRectangle;connectable=0;fillColor=none;top=0;left=0;bottom=0;right=0;align=left;spacingLeft=6;fontStyle=5;overflow=hidden;whiteSpace=wrap;html=1;strokeColor=default;verticalAlign=middle;fontFamily=Helvetica;fontSize=12;fontColor=default;" parent="O4y-3kp40cqBCzOCix7Y-106" vertex="1">
          <mxGeometry x="30" width="150" height="30" as="geometry">
            <mxRectangle width="150" height="30" as="alternateBounds" />
          </mxGeometry>
        </mxCell>
        <mxCell id="O4y-3kp40cqBCzOCix7Y-109" value="" style="shape=tableRow;horizontal=0;startSize=0;swimlaneHead=0;swimlaneBody=0;fillColor=none;collapsible=0;dropTarget=0;points=[[0,0.5],[1,0.5]];portConstraint=eastwest;top=0;left=0;right=0;bottom=0;strokeColor=default;align=left;verticalAlign=middle;spacingLeft=6;fontFamily=Helvetica;fontSize=12;fontColor=default;" parent="O4y-3kp40cqBCzOCix7Y-105" vertex="1">
          <mxGeometry y="60" width="180" height="30" as="geometry" />
        </mxCell>
        <mxCell id="O4y-3kp40cqBCzOCix7Y-110" value="" style="shape=partialRectangle;connectable=0;fillColor=none;top=0;left=0;bottom=0;right=0;editable=1;overflow=hidden;whiteSpace=wrap;html=1;strokeColor=default;align=left;verticalAlign=middle;spacingLeft=6;fontFamily=Helvetica;fontSize=12;fontColor=default;" parent="O4y-3kp40cqBCzOCix7Y-109" vertex="1">
          <mxGeometry width="30" height="30" as="geometry">
            <mxRectangle width="30" height="30" as="alternateBounds" />
          </mxGeometry>
        </mxCell>
        <mxCell id="O4y-3kp40cqBCzOCix7Y-111" value="Local VARCHAR (45)" style="shape=partialRectangle;connectable=0;fillColor=none;top=0;left=0;bottom=0;right=0;align=left;spacingLeft=6;overflow=hidden;whiteSpace=wrap;html=1;strokeColor=default;verticalAlign=middle;fontFamily=Helvetica;fontSize=12;fontColor=default;" parent="O4y-3kp40cqBCzOCix7Y-109" vertex="1">
          <mxGeometry x="30" width="150" height="30" as="geometry">
            <mxRectangle width="150" height="30" as="alternateBounds" />
          </mxGeometry>
        </mxCell>
        <mxCell id="O4y-3kp40cqBCzOCix7Y-118" value="Relação Produto/ Estoque" style="swimlane;childLayout=stackLayout;horizontal=1;startSize=50;horizontalStack=0;rounded=1;fontSize=14;fontStyle=0;strokeWidth=2;resizeParent=0;resizeLast=1;shadow=0;dashed=0;align=center;arcSize=4;whiteSpace=wrap;html=1;strokeColor=#6c8ebf;verticalAlign=middle;spacingLeft=6;fontFamily=Helvetica;fillColor=#dae8fc;" parent="1" vertex="1">
          <mxGeometry x="650" y="-1110" width="160" height="105" as="geometry" />
        </mxCell>
        <mxCell id="O4y-3kp40cqBCzOCix7Y-119" value="+Produto_idProduto INT&lt;br&gt;+Estoque_idEstoque INT&lt;br&gt;+Quantidade INT" style="align=left;strokeColor=none;fillColor=none;spacingLeft=4;fontSize=12;verticalAlign=top;resizable=0;rotatable=0;part=1;html=1;fontFamily=Helvetica;fontColor=default;" parent="O4y-3kp40cqBCzOCix7Y-118" vertex="1">
          <mxGeometry y="50" width="160" height="55" as="geometry" />
        </mxCell>
        <mxCell id="O4y-3kp40cqBCzOCix7Y-121" value="" style="endArrow=none;html=1;rounded=0;fontFamily=Helvetica;fontSize=12;fontColor=default;exitX=0.704;exitY=-0.016;exitDx=0;exitDy=0;exitPerimeter=0;entryX=0.152;entryY=0.976;entryDx=0;entryDy=0;entryPerimeter=0;" parent="1" source="O4y-3kp40cqBCzOCix7Y-32" target="O4y-3kp40cqBCzOCix7Y-119" edge="1">
          <mxGeometry relative="1" as="geometry">
            <mxPoint x="640" y="-890" as="sourcePoint" />
            <mxPoint x="680" y="-1000" as="targetPoint" />
            <Array as="points" />
          </mxGeometry>
        </mxCell>
        <mxCell id="O4y-3kp40cqBCzOCix7Y-122" value="M" style="resizable=0;html=1;whiteSpace=wrap;align=left;verticalAlign=bottom;strokeColor=default;spacingLeft=6;fontFamily=Helvetica;fontSize=12;fontColor=default;fillColor=none;" parent="O4y-3kp40cqBCzOCix7Y-121" connectable="0" vertex="1">
          <mxGeometry x="-1" relative="1" as="geometry">
            <mxPoint x="-18" y="-5" as="offset" />
          </mxGeometry>
        </mxCell>
        <mxCell id="O4y-3kp40cqBCzOCix7Y-123" value="N" style="resizable=0;html=1;whiteSpace=wrap;align=right;verticalAlign=bottom;strokeColor=default;spacingLeft=6;fontFamily=Helvetica;fontSize=12;fontColor=default;fillColor=none;" parent="O4y-3kp40cqBCzOCix7Y-121" connectable="0" vertex="1">
          <mxGeometry x="1" relative="1" as="geometry">
            <mxPoint x="-11" y="19" as="offset" />
          </mxGeometry>
        </mxCell>
        <mxCell id="O4y-3kp40cqBCzOCix7Y-124" value="" style="endArrow=none;html=1;rounded=0;fontFamily=Helvetica;fontSize=12;fontColor=default;exitX=0.689;exitY=-0.014;exitDx=0;exitDy=0;exitPerimeter=0;entryX=0.406;entryY=0.98;entryDx=0;entryDy=0;entryPerimeter=0;" parent="1" source="O4y-3kp40cqBCzOCix7Y-105" target="O4y-3kp40cqBCzOCix7Y-119" edge="1">
          <mxGeometry relative="1" as="geometry">
            <mxPoint x="720" y="-740" as="sourcePoint" />
            <mxPoint x="734" y="-900" as="targetPoint" />
          </mxGeometry>
        </mxCell>
        <mxCell id="O4y-3kp40cqBCzOCix7Y-125" value="M" style="resizable=0;html=1;whiteSpace=wrap;align=left;verticalAlign=bottom;strokeColor=default;spacingLeft=6;fontFamily=Helvetica;fontSize=12;fontColor=default;fillColor=none;" parent="O4y-3kp40cqBCzOCix7Y-124" connectable="0" vertex="1">
          <mxGeometry x="-1" relative="1" as="geometry">
            <mxPoint x="-5" as="offset" />
          </mxGeometry>
        </mxCell>
        <mxCell id="O4y-3kp40cqBCzOCix7Y-126" value="N" style="resizable=0;html=1;whiteSpace=wrap;align=right;verticalAlign=bottom;strokeColor=default;spacingLeft=6;fontFamily=Helvetica;fontSize=12;fontColor=default;fillColor=none;" parent="O4y-3kp40cqBCzOCix7Y-124" connectable="0" vertex="1">
          <mxGeometry x="1" relative="1" as="geometry">
            <mxPoint x="14" y="17" as="offset" />
          </mxGeometry>
        </mxCell>
        <mxCell id="O4y-3kp40cqBCzOCix7Y-137" value="" style="endArrow=none;html=1;rounded=0;fontFamily=Helvetica;fontSize=12;fontColor=default;exitX=1;exitY=0.133;exitDx=0;exitDy=0;exitPerimeter=0;entryX=-0.005;entryY=0.2;entryDx=0;entryDy=0;entryPerimeter=0;" parent="1" source="O4y-3kp40cqBCzOCix7Y-8" target="O4y-3kp40cqBCzOCix7Y-26" edge="1">
          <mxGeometry relative="1" as="geometry">
            <mxPoint x="230" y="-620" as="sourcePoint" />
            <mxPoint x="490" y="-422" as="targetPoint" />
          </mxGeometry>
        </mxCell>
        <mxCell id="O4y-3kp40cqBCzOCix7Y-138" value="1" style="resizable=0;html=1;whiteSpace=wrap;align=left;verticalAlign=bottom;strokeColor=default;spacingLeft=6;fontFamily=Helvetica;fontSize=12;fontColor=default;fillColor=none;" parent="O4y-3kp40cqBCzOCix7Y-137" connectable="0" vertex="1">
          <mxGeometry x="-1" relative="1" as="geometry" />
        </mxCell>
        <mxCell id="O4y-3kp40cqBCzOCix7Y-139" value="N" style="resizable=0;html=1;whiteSpace=wrap;align=right;verticalAlign=bottom;strokeColor=default;spacingLeft=6;fontFamily=Helvetica;fontSize=12;fontColor=default;fillColor=none;" parent="O4y-3kp40cqBCzOCix7Y-137" connectable="0" vertex="1">
          <mxGeometry x="1" relative="1" as="geometry" />
        </mxCell>
        <mxCell id="mLtBZl6AU_xnji8sPROv-16" value="1" style="resizable=0;html=1;whiteSpace=wrap;align=left;verticalAlign=bottom;strokeColor=default;spacingLeft=6;fontFamily=Helvetica;fontSize=12;fontColor=default;fillColor=none;" connectable="0" vertex="1" parent="O4y-3kp40cqBCzOCix7Y-137">
          <mxGeometry x="-1" relative="1" as="geometry">
            <mxPoint y="72" as="offset" />
          </mxGeometry>
        </mxCell>
        <mxCell id="mLtBZl6AU_xnji8sPROv-28" value="1" style="resizable=0;html=1;whiteSpace=wrap;align=left;verticalAlign=bottom;strokeColor=default;spacingLeft=6;fontFamily=Helvetica;fontSize=12;fontColor=default;fillColor=none;" connectable="0" vertex="1" parent="O4y-3kp40cqBCzOCix7Y-137">
          <mxGeometry x="-1" relative="1" as="geometry">
            <mxPoint x="-170" y="76" as="offset" />
          </mxGeometry>
        </mxCell>
        <mxCell id="O4y-3kp40cqBCzOCix7Y-140" value="Relação de Produto/Pedido" style="swimlane;childLayout=stackLayout;horizontal=1;startSize=50;horizontalStack=0;rounded=1;fontSize=14;fontStyle=0;strokeWidth=2;resizeParent=0;resizeLast=1;shadow=0;dashed=0;align=center;arcSize=4;whiteSpace=wrap;html=1;strokeColor=#6c8ebf;verticalAlign=middle;spacingLeft=6;fontFamily=Helvetica;fillColor=#dae8fc;" parent="1" vertex="1">
          <mxGeometry x="260" y="-680" width="180" height="120" as="geometry" />
        </mxCell>
        <mxCell id="O4y-3kp40cqBCzOCix7Y-141" value="+Produto_idProduto INT&lt;br&gt;+Pedido_idPedido INT&lt;br&gt;+Quantidade VARCHAR (45)" style="align=left;strokeColor=none;fillColor=none;spacingLeft=4;fontSize=12;verticalAlign=top;resizable=0;rotatable=0;part=1;html=1;fontFamily=Helvetica;fontColor=default;" parent="O4y-3kp40cqBCzOCix7Y-140" vertex="1">
          <mxGeometry y="50" width="180" height="70" as="geometry" />
        </mxCell>
        <mxCell id="O4y-3kp40cqBCzOCix7Y-142" value="" style="endArrow=none;html=1;rounded=0;fontFamily=Helvetica;fontSize=12;fontColor=default;exitX=1;exitY=0.5;exitDx=0;exitDy=0;entryX=0.5;entryY=1;entryDx=0;entryDy=0;" parent="1" source="O4y-3kp40cqBCzOCix7Y-141" target="O4y-3kp40cqBCzOCix7Y-32" edge="1">
          <mxGeometry relative="1" as="geometry">
            <mxPoint x="340" y="-790" as="sourcePoint" />
            <mxPoint x="560" y="-890" as="targetPoint" />
          </mxGeometry>
        </mxCell>
        <mxCell id="O4y-3kp40cqBCzOCix7Y-143" value="M" style="resizable=0;html=1;whiteSpace=wrap;align=left;verticalAlign=bottom;strokeColor=default;spacingLeft=6;fontFamily=Helvetica;fontSize=12;fontColor=default;fillColor=none;" parent="O4y-3kp40cqBCzOCix7Y-142" connectable="0" vertex="1">
          <mxGeometry x="-1" relative="1" as="geometry">
            <mxPoint x="-4" y="-15" as="offset" />
          </mxGeometry>
        </mxCell>
        <mxCell id="O4y-3kp40cqBCzOCix7Y-144" value="N" style="resizable=0;html=1;whiteSpace=wrap;align=right;verticalAlign=bottom;strokeColor=default;spacingLeft=6;fontFamily=Helvetica;fontSize=12;fontColor=default;fillColor=none;" parent="O4y-3kp40cqBCzOCix7Y-142" connectable="0" vertex="1">
          <mxGeometry x="1" relative="1" as="geometry">
            <mxPoint x="-15" y="20" as="offset" />
          </mxGeometry>
        </mxCell>
        <mxCell id="O4y-3kp40cqBCzOCix7Y-145" value="" style="endArrow=none;html=1;rounded=0;fontFamily=Helvetica;fontSize=12;fontColor=default;entryX=0.591;entryY=0;entryDx=0;entryDy=0;entryPerimeter=0;exitX=1.011;exitY=0.857;exitDx=0;exitDy=0;exitPerimeter=0;" parent="1" source="O4y-3kp40cqBCzOCix7Y-141" target="O4y-3kp40cqBCzOCix7Y-19" edge="1">
          <mxGeometry relative="1" as="geometry">
            <mxPoint x="330" y="-750" as="sourcePoint" />
            <mxPoint x="490" y="-750" as="targetPoint" />
          </mxGeometry>
        </mxCell>
        <mxCell id="O4y-3kp40cqBCzOCix7Y-146" value="M" style="resizable=0;html=1;whiteSpace=wrap;align=left;verticalAlign=bottom;strokeColor=default;spacingLeft=6;fontFamily=Helvetica;fontSize=12;fontColor=default;fillColor=none;" parent="O4y-3kp40cqBCzOCix7Y-145" connectable="0" vertex="1">
          <mxGeometry x="-1" relative="1" as="geometry">
            <mxPoint x="-3" y="2" as="offset" />
          </mxGeometry>
        </mxCell>
        <mxCell id="O4y-3kp40cqBCzOCix7Y-147" value="N" style="resizable=0;html=1;whiteSpace=wrap;align=right;verticalAlign=bottom;strokeColor=default;spacingLeft=6;fontFamily=Helvetica;fontSize=12;fontColor=default;fillColor=none;" parent="O4y-3kp40cqBCzOCix7Y-145" connectable="0" vertex="1">
          <mxGeometry x="1" relative="1" as="geometry">
            <mxPoint x="12" y="-3" as="offset" />
          </mxGeometry>
        </mxCell>
        <mxCell id="O4y-3kp40cqBCzOCix7Y-152" value="Terceiro - Vendedor" style="shape=table;startSize=30;container=1;collapsible=1;childLayout=tableLayout;fixedRows=1;rowLines=0;fontStyle=1;align=center;resizeLast=1;html=1;strokeColor=#6c8ebf;verticalAlign=middle;spacingLeft=6;fontFamily=Helvetica;fontSize=12;fillColor=#dae8fc;" parent="1" vertex="1">
          <mxGeometry y="-780" width="200" height="120" as="geometry" />
        </mxCell>
        <mxCell id="O4y-3kp40cqBCzOCix7Y-153" value="" style="shape=tableRow;horizontal=0;startSize=0;swimlaneHead=0;swimlaneBody=0;fillColor=none;collapsible=0;dropTarget=0;points=[[0,0.5],[1,0.5]];portConstraint=eastwest;top=0;left=0;right=0;bottom=1;strokeColor=default;align=left;verticalAlign=middle;spacingLeft=6;fontFamily=Helvetica;fontSize=12;fontColor=default;" parent="O4y-3kp40cqBCzOCix7Y-152" vertex="1">
          <mxGeometry y="30" width="200" height="30" as="geometry" />
        </mxCell>
        <mxCell id="O4y-3kp40cqBCzOCix7Y-154" value="PK" style="shape=partialRectangle;connectable=0;fillColor=none;top=0;left=0;bottom=0;right=0;fontStyle=1;overflow=hidden;whiteSpace=wrap;html=1;strokeColor=default;align=left;verticalAlign=middle;spacingLeft=6;fontFamily=Helvetica;fontSize=12;fontColor=default;" parent="O4y-3kp40cqBCzOCix7Y-153" vertex="1">
          <mxGeometry width="30" height="30" as="geometry">
            <mxRectangle width="30" height="30" as="alternateBounds" />
          </mxGeometry>
        </mxCell>
        <mxCell id="O4y-3kp40cqBCzOCix7Y-155" value="IdTerceiro_Vendedor INT" style="shape=partialRectangle;connectable=0;fillColor=none;top=0;left=0;bottom=0;right=0;align=left;spacingLeft=6;fontStyle=5;overflow=hidden;whiteSpace=wrap;html=1;strokeColor=default;verticalAlign=middle;fontFamily=Helvetica;fontSize=12;fontColor=default;" parent="O4y-3kp40cqBCzOCix7Y-153" vertex="1">
          <mxGeometry x="30" width="170" height="30" as="geometry">
            <mxRectangle width="170" height="30" as="alternateBounds" />
          </mxGeometry>
        </mxCell>
        <mxCell id="O4y-3kp40cqBCzOCix7Y-156" value="" style="shape=tableRow;horizontal=0;startSize=0;swimlaneHead=0;swimlaneBody=0;fillColor=none;collapsible=0;dropTarget=0;points=[[0,0.5],[1,0.5]];portConstraint=eastwest;top=0;left=0;right=0;bottom=0;strokeColor=default;align=left;verticalAlign=middle;spacingLeft=6;fontFamily=Helvetica;fontSize=12;fontColor=default;" parent="O4y-3kp40cqBCzOCix7Y-152" vertex="1">
          <mxGeometry y="60" width="200" height="30" as="geometry" />
        </mxCell>
        <mxCell id="O4y-3kp40cqBCzOCix7Y-157" value="" style="shape=partialRectangle;connectable=0;fillColor=none;top=0;left=0;bottom=0;right=0;editable=1;overflow=hidden;whiteSpace=wrap;html=1;strokeColor=default;align=left;verticalAlign=middle;spacingLeft=6;fontFamily=Helvetica;fontSize=12;fontColor=default;" parent="O4y-3kp40cqBCzOCix7Y-156" vertex="1">
          <mxGeometry width="30" height="30" as="geometry">
            <mxRectangle width="30" height="30" as="alternateBounds" />
          </mxGeometry>
        </mxCell>
        <mxCell id="O4y-3kp40cqBCzOCix7Y-158" value="Razão Social VARCHAR (45)" style="shape=partialRectangle;connectable=0;fillColor=none;top=0;left=0;bottom=0;right=0;align=left;spacingLeft=6;overflow=hidden;whiteSpace=wrap;html=1;strokeColor=default;verticalAlign=middle;fontFamily=Helvetica;fontSize=12;fontColor=default;" parent="O4y-3kp40cqBCzOCix7Y-156" vertex="1">
          <mxGeometry x="30" width="170" height="30" as="geometry">
            <mxRectangle width="170" height="30" as="alternateBounds" />
          </mxGeometry>
        </mxCell>
        <mxCell id="O4y-3kp40cqBCzOCix7Y-159" value="" style="shape=tableRow;horizontal=0;startSize=0;swimlaneHead=0;swimlaneBody=0;fillColor=none;collapsible=0;dropTarget=0;points=[[0,0.5],[1,0.5]];portConstraint=eastwest;top=0;left=0;right=0;bottom=0;strokeColor=default;align=left;verticalAlign=middle;spacingLeft=6;fontFamily=Helvetica;fontSize=12;fontColor=default;" parent="O4y-3kp40cqBCzOCix7Y-152" vertex="1">
          <mxGeometry y="90" width="200" height="30" as="geometry" />
        </mxCell>
        <mxCell id="O4y-3kp40cqBCzOCix7Y-160" value="" style="shape=partialRectangle;connectable=0;fillColor=none;top=0;left=0;bottom=0;right=0;editable=1;overflow=hidden;whiteSpace=wrap;html=1;strokeColor=default;align=left;verticalAlign=middle;spacingLeft=6;fontFamily=Helvetica;fontSize=12;fontColor=default;" parent="O4y-3kp40cqBCzOCix7Y-159" vertex="1">
          <mxGeometry width="30" height="30" as="geometry">
            <mxRectangle width="30" height="30" as="alternateBounds" />
          </mxGeometry>
        </mxCell>
        <mxCell id="O4y-3kp40cqBCzOCix7Y-161" value="Local VARCHAR (45)" style="shape=partialRectangle;connectable=0;fillColor=none;top=0;left=0;bottom=0;right=0;align=left;spacingLeft=6;overflow=hidden;whiteSpace=wrap;html=1;strokeColor=default;verticalAlign=middle;fontFamily=Helvetica;fontSize=12;fontColor=default;" parent="O4y-3kp40cqBCzOCix7Y-159" vertex="1">
          <mxGeometry x="30" width="170" height="30" as="geometry">
            <mxRectangle width="170" height="30" as="alternateBounds" />
          </mxGeometry>
        </mxCell>
        <mxCell id="O4y-3kp40cqBCzOCix7Y-165" value="" style="endArrow=none;html=1;rounded=0;fontFamily=Helvetica;fontSize=12;fontColor=default;exitX=1.005;exitY=0.033;exitDx=0;exitDy=0;entryX=0.416;entryY=0.985;entryDx=0;entryDy=0;entryPerimeter=0;exitPerimeter=0;" parent="1" source="O4y-3kp40cqBCzOCix7Y-159" target="O4y-3kp40cqBCzOCix7Y-169" edge="1">
          <mxGeometry relative="1" as="geometry">
            <mxPoint x="200" y="-645" as="sourcePoint" />
            <mxPoint x="290" y="-720" as="targetPoint" />
          </mxGeometry>
        </mxCell>
        <mxCell id="O4y-3kp40cqBCzOCix7Y-166" value="M" style="resizable=0;html=1;whiteSpace=wrap;align=left;verticalAlign=bottom;strokeColor=default;spacingLeft=6;fontFamily=Helvetica;fontSize=12;fontColor=default;fillColor=none;" parent="O4y-3kp40cqBCzOCix7Y-165" connectable="0" vertex="1">
          <mxGeometry x="-1" relative="1" as="geometry">
            <mxPoint x="-3" y="-15" as="offset" />
          </mxGeometry>
        </mxCell>
        <mxCell id="O4y-3kp40cqBCzOCix7Y-167" value="N" style="resizable=0;html=1;whiteSpace=wrap;align=right;verticalAlign=bottom;strokeColor=default;spacingLeft=6;fontFamily=Helvetica;fontSize=12;fontColor=default;fillColor=none;" parent="O4y-3kp40cqBCzOCix7Y-165" connectable="0" vertex="1">
          <mxGeometry x="1" relative="1" as="geometry">
            <mxPoint x="-17" y="21" as="offset" />
          </mxGeometry>
        </mxCell>
        <mxCell id="O4y-3kp40cqBCzOCix7Y-168" value="Produto por Vendedor (Terceiro)" style="swimlane;childLayout=stackLayout;horizontal=1;startSize=50;horizontalStack=0;rounded=1;fontSize=14;fontStyle=0;strokeWidth=2;resizeParent=0;resizeLast=1;shadow=0;dashed=0;align=center;arcSize=4;whiteSpace=wrap;html=1;strokeColor=#6c8ebf;verticalAlign=middle;spacingLeft=6;fontFamily=Helvetica;fillColor=#dae8fc;" parent="1" vertex="1">
          <mxGeometry x="194" y="-910" width="216" height="115" as="geometry" />
        </mxCell>
        <mxCell id="O4y-3kp40cqBCzOCix7Y-169" value="+IdTerceiro_Vendedor_idTerceiro INT&lt;br&gt;&lt;div&gt;+Produto_idProduto INT&lt;br&gt;&lt;/div&gt;&lt;div&gt;+Quantidade INT&lt;br&gt;&lt;/div&gt;" style="align=left;strokeColor=none;fillColor=none;spacingLeft=4;fontSize=12;verticalAlign=top;resizable=0;rotatable=0;part=1;html=1;fontFamily=Helvetica;fontColor=default;" parent="O4y-3kp40cqBCzOCix7Y-168" vertex="1">
          <mxGeometry y="50" width="216" height="65" as="geometry" />
        </mxCell>
        <mxCell id="O4y-3kp40cqBCzOCix7Y-170" value="" style="endArrow=none;html=1;rounded=0;fontFamily=Helvetica;fontSize=12;fontColor=default;exitX=0.009;exitY=-0.056;exitDx=0;exitDy=0;exitPerimeter=0;entryX=1.005;entryY=0.631;entryDx=0;entryDy=0;entryPerimeter=0;" parent="1" source="O4y-3kp40cqBCzOCix7Y-42" target="O4y-3kp40cqBCzOCix7Y-169" edge="1">
          <mxGeometry relative="1" as="geometry">
            <mxPoint x="480" y="-990" as="sourcePoint" />
            <mxPoint x="420" y="-820" as="targetPoint" />
          </mxGeometry>
        </mxCell>
        <mxCell id="O4y-3kp40cqBCzOCix7Y-171" value="M" style="resizable=0;html=1;whiteSpace=wrap;align=left;verticalAlign=bottom;strokeColor=default;spacingLeft=6;fontFamily=Helvetica;fontSize=12;fontColor=default;fillColor=none;" parent="O4y-3kp40cqBCzOCix7Y-170" connectable="0" vertex="1">
          <mxGeometry x="-1" relative="1" as="geometry">
            <mxPoint x="-22" as="offset" />
          </mxGeometry>
        </mxCell>
        <mxCell id="O4y-3kp40cqBCzOCix7Y-172" value="N" style="resizable=0;html=1;whiteSpace=wrap;align=right;verticalAlign=bottom;strokeColor=default;spacingLeft=6;fontFamily=Helvetica;fontSize=12;fontColor=default;fillColor=none;" parent="O4y-3kp40cqBCzOCix7Y-170" connectable="0" vertex="1">
          <mxGeometry x="1" relative="1" as="geometry">
            <mxPoint x="18" as="offset" />
          </mxGeometry>
        </mxCell>
        <mxCell id="mLtBZl6AU_xnji8sPROv-12" value="Forma de Pagamento" style="swimlane;childLayout=stackLayout;horizontal=1;startSize=50;horizontalStack=0;rounded=1;fontSize=14;fontStyle=0;strokeWidth=2;resizeParent=0;resizeLast=1;shadow=0;dashed=0;align=center;arcSize=4;whiteSpace=wrap;html=1;fillColor=#dae8fc;strokeColor=#6c8ebf;" vertex="1" parent="1">
          <mxGeometry x="410" y="-290" width="160" height="140" as="geometry" />
        </mxCell>
        <mxCell id="mLtBZl6AU_xnji8sPROv-13" value="+Cliente_idCliente INT&lt;br&gt;&lt;div&gt;+Cartão Crédito DOUBLE&lt;br&gt;&lt;/div&gt;+Cartão Débito DOUBLE&lt;br&gt;&lt;div&gt;+PIX DOUBLE&lt;br&gt;&lt;/div&gt;&lt;div&gt;+ Boleto DOUBLE&lt;br&gt;&lt;/div&gt;&lt;div&gt;&lt;br&gt;&lt;/div&gt;" style="align=left;strokeColor=none;fillColor=none;spacingLeft=4;fontSize=12;verticalAlign=top;resizable=0;rotatable=0;part=1;html=1;" vertex="1" parent="mLtBZl6AU_xnji8sPROv-12">
          <mxGeometry y="50" width="160" height="90" as="geometry" />
        </mxCell>
        <mxCell id="mLtBZl6AU_xnji8sPROv-14" value="" style="endArrow=none;html=1;rounded=0;exitX=0.914;exitY=1.067;exitDx=0;exitDy=0;exitPerimeter=0;entryX=-0.012;entryY=0.364;entryDx=0;entryDy=0;entryPerimeter=0;" edge="1" parent="1" source="O4y-3kp40cqBCzOCix7Y-11" target="mLtBZl6AU_xnji8sPROv-12">
          <mxGeometry relative="1" as="geometry">
            <mxPoint x="210" y="-330" as="sourcePoint" />
            <mxPoint x="380" y="-280" as="targetPoint" />
          </mxGeometry>
        </mxCell>
        <mxCell id="mLtBZl6AU_xnji8sPROv-15" value="N" style="resizable=0;html=1;whiteSpace=wrap;align=right;verticalAlign=bottom;" connectable="0" vertex="1" parent="mLtBZl6AU_xnji8sPROv-14">
          <mxGeometry x="1" relative="1" as="geometry">
            <mxPoint x="-4" y="-8" as="offset" />
          </mxGeometry>
        </mxCell>
        <mxCell id="mLtBZl6AU_xnji8sPROv-18" value="Pessoa Fisica" style="swimlane;childLayout=stackLayout;horizontal=1;startSize=50;horizontalStack=0;rounded=1;fontSize=14;fontStyle=0;strokeWidth=2;resizeParent=0;resizeLast=1;shadow=0;dashed=0;align=center;arcSize=4;whiteSpace=wrap;html=1;fillColor=#dae8fc;strokeColor=#6c8ebf;" vertex="1" parent="1">
          <mxGeometry x="210" y="-221" width="160" height="91" as="geometry" />
        </mxCell>
        <mxCell id="mLtBZl6AU_xnji8sPROv-19" value="+Cliente_idCliente INT&lt;br&gt;+CPF VARCHAR (45) UN&lt;div&gt;&lt;br/&gt;&lt;/div&gt;" style="align=left;strokeColor=none;fillColor=none;spacingLeft=4;fontSize=12;verticalAlign=top;resizable=0;rotatable=0;part=1;html=1;" vertex="1" parent="mLtBZl6AU_xnji8sPROv-18">
          <mxGeometry y="50" width="160" height="41" as="geometry" />
        </mxCell>
        <mxCell id="mLtBZl6AU_xnji8sPROv-20" value="Pessoa Juridica" style="swimlane;childLayout=stackLayout;horizontal=1;startSize=50;horizontalStack=0;rounded=1;fontSize=14;fontStyle=0;strokeWidth=2;resizeParent=0;resizeLast=1;shadow=0;dashed=0;align=center;arcSize=4;whiteSpace=wrap;html=1;fillColor=#dae8fc;strokeColor=#6c8ebf;" vertex="1" parent="1">
          <mxGeometry x="20" y="-220" width="160" height="90" as="geometry" />
        </mxCell>
        <mxCell id="mLtBZl6AU_xnji8sPROv-21" value="+Cliente_idCliente INT&lt;br&gt;+CNPJ VARCHAR (45) UN" style="align=left;strokeColor=none;fillColor=none;spacingLeft=4;fontSize=12;verticalAlign=top;resizable=0;rotatable=0;part=1;html=1;" vertex="1" parent="mLtBZl6AU_xnji8sPROv-20">
          <mxGeometry y="50" width="160" height="40" as="geometry" />
        </mxCell>
        <mxCell id="mLtBZl6AU_xnji8sPROv-23" value="" style="endArrow=none;html=1;rounded=0;exitX=0.336;exitY=0.933;exitDx=0;exitDy=0;exitPerimeter=0;entryX=0.25;entryY=0;entryDx=0;entryDy=0;" edge="1" parent="1" source="O4y-3kp40cqBCzOCix7Y-11" target="mLtBZl6AU_xnji8sPROv-20">
          <mxGeometry relative="1" as="geometry">
            <mxPoint x="90" y="-330" as="sourcePoint" />
            <mxPoint x="287" y="-201" as="targetPoint" />
          </mxGeometry>
        </mxCell>
        <mxCell id="mLtBZl6AU_xnji8sPROv-24" value="N" style="resizable=0;html=1;whiteSpace=wrap;align=right;verticalAlign=bottom;" connectable="0" vertex="1" parent="mLtBZl6AU_xnji8sPROv-23">
          <mxGeometry x="1" relative="1" as="geometry">
            <mxPoint x="-4" y="-8" as="offset" />
          </mxGeometry>
        </mxCell>
        <mxCell id="mLtBZl6AU_xnji8sPROv-25" value="" style="endArrow=none;html=1;rounded=0;exitX=0.914;exitY=1.067;exitDx=0;exitDy=0;exitPerimeter=0;entryX=0.25;entryY=0;entryDx=0;entryDy=0;" edge="1" parent="1" target="mLtBZl6AU_xnji8sPROv-18">
          <mxGeometry relative="1" as="geometry">
            <mxPoint x="140" y="-370" as="sourcePoint" />
            <mxPoint x="337" y="-241" as="targetPoint" />
          </mxGeometry>
        </mxCell>
        <mxCell id="mLtBZl6AU_xnji8sPROv-26" value="N" style="resizable=0;html=1;whiteSpace=wrap;align=right;verticalAlign=bottom;" connectable="0" vertex="1" parent="mLtBZl6AU_xnji8sPROv-25">
          <mxGeometry x="1" relative="1" as="geometry">
            <mxPoint x="10" y="-8" as="offset" />
          </mxGeometry>
        </mxCell>
        <mxCell id="mLtBZl6AU_xnji8sPROv-27" value="1" style="resizable=0;html=1;whiteSpace=wrap;align=left;verticalAlign=bottom;strokeColor=default;spacingLeft=6;fontFamily=Helvetica;fontSize=12;fontColor=default;fillColor=none;" connectable="0" vertex="1" parent="1">
          <mxGeometry x="150" y="-350" as="geometry" />
        </mxCell>
      </root>
    </mxGraphModel>
  </diagram>
</mxfile>
